<svg xmlns="http://www.w3.org/2000/svg" width="933" height="533" fill="none" viewBox="0 0 933 533" id="giftclick-logo">
              <path fill="#ffffff" d="M369.803 254.18H157.219A17.254 17.254 0 0 1 140 236.959v-12.18a17.255 17.255 0 0 1 17.219-17.221h212.584a17.255 17.255 0 0 1 17.219 17.221v12.18a17.254 17.254 0 0 1-17.219 17.221Zm-212.602-35.253a5.886 5.886 0 0 0-5.886 5.887v12.145a5.888 5.888 0 0 0 5.886 5.887h212.602a5.886 5.886 0 0 0 5.887-5.887v-12.18a5.888 5.888 0 0 0-5.887-5.887l-212.602.035Z"></path>
              <path fill="#ffffff" d="M258.629 216.847c-1.235 0-2.461-.203-3.63-.599-23.652-8.003-52.627-21.575-56.275-40.77-1.762-9.183 2.379-18.067 12.231-26.44 9.852-8.372 19.281-10.928 28.023-7.667 18.294 6.804 26.789 37.738 30.702 62.503a11.234 11.234 0 0 1-6.354 11.925 11.225 11.225 0 0 1-4.679 1.048h-.018Zm-.158-11.21 5.604-.899-5.604.899ZM231.593 151.4c-3.877 0-8.336 2.116-13.306 6.311-6.521 5.517-9.341 10.769-8.424 15.634 1.956 10.294 20.567 22.58 48.572 32.08-4.653-29.312-13.606-49.777-23.405-53.425a9.799 9.799 0 0 0-3.437-.6Z"></path>
              <path fill="#ffffff" d="M270.014 216.847a11.225 11.225 0 0 1-11.032-12.973c3.895-24.677 12.337-55.682 30.701-62.503 8.812-3.243 18.171-.67 28.023 7.668 9.852 8.337 13.976 17.238 12.231 26.439-3.648 19.195-32.622 32.767-56.274 40.77a11.319 11.319 0 0 1-3.649.599Zm27.054-65.447a9.803 9.803 0 0 0-3.437.6c-9.799 3.648-18.77 24.095-23.405 53.425 28.023-9.5 46.616-21.786 48.573-32.08.916-4.865-1.904-10.117-8.425-15.634-4.97-4.195-9.429-6.311-13.306-6.311ZM406.021 348.005c0-8.813.635-15.441 2.009-19.671 3.702-11.422 13.324-17.45 26.437-17.45 12.795 0 22.101 6.134 25.59 15.335.318.74.212 1.269-.423 1.586l-11.314 4.759c-.741.212-1.269 0-1.481-.529a13.48 13.48 0 0 0-12.337-7.403c-6.027 0-9.834 2.644-11.526 8.038-.74 2.327-1.163 7.403-1.163 15.335 0 7.932.423 13.114 1.163 15.44 1.692 5.288 5.604 7.932 11.738 7.932 5.498 0 10.151-2.749 11.526-7.403a26.44 26.44 0 0 0 .846-7.05.56.56 0 0 0-.635-.635h-9.728c-.74 0-1.058-.317-1.058-1.058v-10.152c0-.741.318-1.058 1.058-1.058h24.674c.74 0 1.057.317 1.057 1.058v5.922c.193 5.45-.4 10.9-1.762 16.181-3.525 11.422-13.43 17.979-26.225 17.979-13.113 0-22.735-6.028-26.437-17.45-1.374-4.266-2.009-10.893-2.009-19.706ZM475.179 324.632c-.74 0-1.057-.317-1.057-1.057v-10.471c0-.74.317-1.057 1.057-1.057h12.69c.74 0 1.057.317 1.057 1.057v10.471c0 .74-.317 1.057-1.057 1.057h-12.69Zm0 59.33c-.74 0-1.057-.317-1.057-1.057v-49.001c0-.741.317-1.058 1.057-1.058h12.69c.74 0 1.057.317 1.057 1.058v49.071c0 .74-.317 1.058-1.057 1.058l-12.69-.071ZM505.211 383.962c-.74 0-1.058-.317-1.058-1.057v-38.602a.556.556 0 0 0-.16-.474.558.558 0 0 0-.474-.16h-3.172c-.741 0-1.058-.318-1.058-1.058v-8.813c0-.741.317-1.058 1.058-1.058h3.172a.57.57 0 0 0 .474-.16.558.558 0 0 0 .16-.474v-2.433c0-12.338 5.711-17.626 17.977-17.626h5.816c.741 0 1.058.317 1.058 1.057v9.942c0 .74-.317 1.057-1.058 1.057h-3.278c-4.653 0-5.816 1.164-5.816 5.5v2.538a.57.57 0 0 0 .16.474.562.562 0 0 0 .475.16h8.354c.74 0 1.057.318 1.057 1.058v8.813c0 .74-.317 1.058-1.057 1.058h-8.354a.57.57 0 0 0-.475.16.556.556 0 0 0-.16.474v38.602c0 .74-.317 1.058-1.057 1.058l-12.584-.036ZM555.44 384.597c-11.738 0-16.285-5.182-16.285-17.027v-23.267a.556.556 0 0 0-.16-.474.558.558 0 0 0-.474-.16h-3.173c-.74 0-1.057-.318-1.057-1.058v-8.813c0-.741.317-1.058 1.057-1.058h3.173a.558.558 0 0 0 .61-.378.557.557 0 0 0 .024-.256v-13.749c0-.74.318-1.057 1.058-1.057h12.584c.74 0 1.057.317 1.057 1.057v13.749a.57.57 0 0 0 .378.61.57.57 0 0 0 .256.024h6.557c.74 0 1.057.317 1.057 1.058v8.813c0 .74-.317 1.058-1.057 1.058h-6.557a.557.557 0 0 0-.474.16.57.57 0 0 0-.16.474v22.632c0 3.808 1.269 5.077 4.653 5.077h2.538c.74 0 1.057.317 1.057 1.057v10.47c0 .741-.317 1.058-1.057 1.058h-5.605ZM571.408 348.004c0-8.989.634-15.546 2.009-19.388 3.807-11.528 12.901-17.627 25.59-17.627 12.161 0 20.938 5.817 25.062 15.97.317.634.212 1.057-.529 1.269l-11.526 5.182a.951.951 0 0 1-1.48-.529c-2.327-5.393-6.134-8.143-11.421-8.143a10.397 10.397 0 0 0-10.786 7.932c-.74 2.432-1.163 7.509-1.163 15.44 0 7.932.423 13.008 1.163 15.441a10.4 10.4 0 0 0 10.786 7.932c5.287 0 9.094-2.75 11.421-8.144a.95.95 0 0 1 1.48-.528l11.526 5.182c.741.211.846.634.529 1.269-4.124 10.153-12.901 15.969-25.062 15.969-12.689 0-21.783-6.134-25.59-17.626-1.375-4.054-2.009-10.611-2.009-19.601ZM649.554 384.597c-11.315 0-15.862-4.865-15.862-16.287v-55.206c0-.74.317-1.057 1.058-1.057h12.689c.74 0 1.058.317 1.058 1.057v54.043c0 3.278 1.48 4.865 4.441 4.865h2.221c.74 0 1.057.317 1.057 1.057v10.47c0 .741-.317 1.058-1.057 1.058h-5.605ZM667.108 324.632c-.74 0-1.058-.317-1.058-1.057v-10.471c0-.74.318-1.057 1.058-1.057h12.689c.741 0 1.058.317 1.058 1.057v10.471c0 .74-.317 1.057-1.058 1.057h-12.689Zm0 59.33c-.74 0-1.058-.317-1.058-1.057v-49.001c0-.741.318-1.058 1.058-1.058h12.689c.741 0 1.058.317 1.058 1.058v49.071c0 .74-.317 1.058-1.058 1.058l-12.689-.071ZM693.227 370.637a48.211 48.211 0 0 1 0-24.536c2.961-9.412 11.103-14.489 22.101-14.489a22.704 22.704 0 0 1 19.387 9.624 1.054 1.054 0 0 1 .208.785 1.048 1.048 0 0 1-.42.696l-9.2 6.028a1.061 1.061 0 0 1-1.265.104 1.063 1.063 0 0 1-.321-.316 9.682 9.682 0 0 0-8.142-4.441 7.454 7.454 0 0 0-7.931 5.499 40.933 40.933 0 0 0 0 17.626 7.453 7.453 0 0 0 7.931 5.464 9.676 9.676 0 0 0 8.142-4.442 1.06 1.06 0 0 1 1.586-.211l9.2 6.028a1.048 1.048 0 0 1 .42.696 1.045 1.045 0 0 1-.208.785 22.704 22.704 0 0 1-19.387 9.624c-10.998-.036-19.14-5.112-22.101-14.524ZM778.141 383.962a1.751 1.751 0 0 1-.948-.296 1.751 1.751 0 0 1-.638-.761l-11.421-20.623-5.287 6.557v14.101c0 .74-.317 1.058-1.058 1.058H746.1c-.74 0-1.058-.318-1.058-1.058v-69.8c0-.741.318-1.058 1.058-1.058h12.689c.741 0 1.058.317 1.058 1.058v38.778l14.699-18.085a2.548 2.548 0 0 1 2.009-1.058h13.535a.619.619 0 0 1 .423 1.058l-15.65 18.085 17.871 30.987c.211.423.106 1.057-.529 1.057h-14.064ZM359.564 242.828H168.639a21.874 21.874 0 0 0-21.854 21.857v106.234a21.868 21.868 0 0 0 21.854 21.856h190.925a21.868 21.868 0 0 0 21.854-21.856V264.614a21.872 21.872 0 0 0-21.854-21.786ZM334.89 351.301l16.937 30.194h-9.359l-15.139-29.666a7.478 7.478 0 0 0-5.288-3.983 7.624 7.624 0 0 0-1.374-.124 7.456 7.456 0 0 0-5.164 2.045l-4.776 4.354v-48.42l34.138 34.372h-3.525a7.528 7.528 0 0 0-6.398 3.779 7.525 7.525 0 0 0-.035 7.431l-.017.018Zm35.142 19.618a10.577 10.577 0 0 1-5.816 9.394l-16.302-29.065 6.168-.106a7.524 7.524 0 0 0 7.332-8.99 7.522 7.522 0 0 0-2.044-3.842l-46.987-47.309a7.523 7.523 0 0 0-12.865 5.288v66.31a7.526 7.526 0 0 0 12.601 5.57l7.473-6.804 10.222 20.041H168.639a10.575 10.575 0 0 1-10.574-10.576V264.526a10.575 10.575 0 0 1 10.574-10.576h190.925a10.576 10.576 0 0 1 10.574 10.576l-.106 106.393Z"></path>
              <path fill="#ffffff" d="m356.303 378.551-17.377-30.97a1.624 1.624 0 0 1 .009-1.603 1.625 1.625 0 0 1 1.383-.811l11.015-.194a1.624 1.624 0 0 0 1.482-1.01 1.625 1.625 0 0 0-.354-1.758l-41.223-41.51a1.626 1.626 0 0 0-1.78-.37 1.627 1.627 0 0 0-1.005 1.516v58.167a1.617 1.617 0 0 0 .967 1.484 1.617 1.617 0 0 0 1.747-.285l9.799-8.937a1.63 1.63 0 0 1 1.383-.399 1.623 1.623 0 0 1 1.155.857l14.664 28.749h16.108l1.34-.705a1.626 1.626 0 0 0 .687-2.221Z"></path>
            </svg>
